<?xml version="1.0" encoding="UTF-8" standalone="no"?>
<svg
   xmlns:ns2="http://ns.adobe.com/AdobeIllustrator/10.0/"
   xmlns:dc="http://purl.org/dc/elements/1.1/"
   xmlns:cc="http://creativecommons.org/ns#"
   xmlns:rdf="http://www.w3.org/1999/02/22-rdf-syntax-ns#"
   xmlns:svg="http://www.w3.org/2000/svg"
   xmlns="http://www.w3.org/2000/svg"
   id="svg8"
   version="1.1"
   viewBox="0 0 40 40.000001"
   height="40mm"
   width="40mm">
  <defs
     id="defs2" />
  <metadata
     id="metadata5">
    <rdf:RDF>
      <cc:Work
         rdf:about="">
        <dc:format>image/svg+xml</dc:format>
        <dc:type
           rdf:resource="http://purl.org/dc/dcmitype/StillImage" />
        <dc:title />
      </cc:Work>
    </rdf:RDF>
  </metadata>
  <g
     transform="translate(-63.88401,-92.795649)"
     id="layer1">
    <g
       transform="translate(3.1750001,-0.52916667)"
       id="g3789">
      <g
         style="overflow:visible"
         id="g97"
         transform="matrix(0.26458333,0,0,0.26458333,63.905735,94.420958)">
        <g
           ns2:rgbTrio="#4F008000FFFF"
           ns2:dimmedPercent="50"
           ns2:layer="yes"
           id="Layer_1">
          <g
             id="g74">
            <path
               id="path50"
               d="m 51.986,57.297 c -1.797,0.025 0.34,0.926 2.686,1.287 0.648,-0.506 1.236,-1.018 1.76,-1.516 -1.461,0.358 -2.948,0.366 -4.446,0.229"
               ns2:knockout="Off"
               style="fill:#a80030" />
            <path
               id="path52"
               d="m 61.631,54.893 c 1.07,-1.477 1.85,-3.094 2.125,-4.766 -0.24,1.192 -0.887,2.221 -1.496,3.307 -3.359,2.115 -0.316,-1.256 -0.002,-2.537 -3.612,4.546 -0.496,2.726 -0.627,3.996"
               ns2:knockout="Off"
               style="fill:#a80030" />
            <path
               id="path54"
               d="m 65.191,45.629 c 0.217,-3.236 -0.637,-2.213 -0.924,-0.978 0.335,0.174 0.6,2.281 0.924,0.978"
               ns2:knockout="Off"
               style="fill:#a80030" />
            <path
               id="path56"
               d="m 45.172,1.399 c 0.959,0.172 2.072,0.304 1.916,0.533 1.049,-0.23 1.287,-0.442 -1.916,-0.533"
               ns2:knockout="Off"
               style="fill:#a80030" />
            <path
               id="path58"
               d="M 47.088,1.932 46.41,2.072 47.041,2.016 47.088,1.932"
               ns2:knockout="Off"
               style="fill:#a80030" />
            <path
               id="path60"
               d="m 76.992,46.856 c 0.107,2.906 -0.85,4.316 -1.713,6.812 l -1.553,0.776 c -1.271,2.468 0.123,1.567 -0.787,3.53 -1.984,1.764 -6.021,5.52 -7.313,5.863 -0.943,-0.021 0.639,-1.113 0.846,-1.541 -2.656,1.824 -2.131,2.738 -6.193,3.846 L 60.16,65.878 C 50.142,70.591 36.226,61.251 36.409,48.507 c -0.107,0.809 -0.304,0.607 -0.526,0.934 -0.517,-6.557 3.028,-13.143 9.007,-15.832 5.848,-2.895 12.704,-1.707 16.893,2.197 -2.301,-3.014 -6.881,-6.209 -12.309,-5.91 -5.317,0.084 -10.291,3.463 -11.951,7.131 -2.724,1.715 -3.04,6.611 -4.227,7.507 -1.597,11.737 3.004,16.808 10.787,22.773 1.225,0.826 0.345,0.951 0.511,1.58 -2.586,-1.211 -4.954,-3.039 -6.901,-5.277 1.033,1.512 2.148,2.982 3.589,4.137 -2.438,-0.826 -5.695,-5.908 -6.646,-6.115 4.203,7.525 17.052,13.197 23.78,10.383 -3.113,0.115 -7.068,0.064 -10.566,-1.229 -1.469,-0.756 -3.467,-2.322 -3.11,-2.615 9.182,3.43 18.667,2.598 26.612,-3.771 2.021,-1.574 4.229,-4.252 4.867,-4.289 -0.961,1.445 0.164,0.695 -0.574,1.971 2.014,-3.248 -0.875,-1.322 2.082,-5.609 l 1.092,1.504 c -0.406,-2.696 3.348,-5.97 2.967,-10.234 0.861,-1.304 0.961,1.403 0.047,4.403 1.268,-3.328 0.334,-3.863 0.66,-6.609 0.352,0.923 0.814,1.904 1.051,2.878 -0.826,-3.216 0.848,-5.416 1.262,-7.285 -0.408,-0.181 -1.275,1.422 -1.473,-2.377 0.029,-1.65 0.459,-0.865 0.625,-1.271 -0.324,-0.186 -1.174,-1.451 -1.691,-3.877 0.375,-0.57 1.002,1.478 1.512,1.562 -0.328,-1.929 -0.893,-3.4 -0.916,-4.88 -1.49,-3.114 -0.527,0.415 -1.736,-1.337 -1.586,-4.947 1.316,-1.148 1.512,-3.396 2.404,3.483 3.775,8.881 4.404,11.117 -0.48,-2.726 -1.256,-5.367 -2.203,-7.922 0.73,0.307 -1.176,-5.609 0.949,-1.691 C 83.519,18.706 76.074,10.902 69.225,7.24 70.063,8.007 71.121,8.97 70.741,9.121 67.335,7.093 67.934,6.935 67.446,6.078 64.671,4.949 64.489,6.169 62.651,6.08 57.421,3.306 56.413,3.601 51.6,1.863 l 0.219,1.023 c -3.465,-1.154 -4.037,0.438 -7.782,0.004 -0.228,-0.178 1.2,-0.644 2.375,-0.815 -3.35,0.442 -3.193,-0.66 -6.471,0.122 0.808,-0.567 1.662,-0.942 2.524,-1.424 -2.732,0.166 -6.522,1.59 -5.352,0.295 -4.456,1.988 -12.37,4.779 -16.811,8.943 l -0.14,-0.933 c -2.035,2.443 -8.874,7.296 -9.419,10.46 l -0.544,0.127 c -1.059,1.793 -1.744,3.825 -2.584,5.67 -1.385,2.36 -2.03,0.908 -1.833,1.278 -2.724,5.523 -4.077,10.164 -5.246,13.97 0.833,1.245 0.02,7.495 0.335,12.497 -1.368,24.704 17.338,48.69 37.785,54.228 2.997,1.072 7.454,1.031 11.245,1.141 -4.473,-1.279 -5.051,-0.678 -9.408,-2.197 -3.143,-1.48 -3.832,-3.17 -6.058,-5.102 l 0.881,1.557 c -4.366,-1.545 -2.539,-1.912 -6.091,-3.037 l 0.941,-1.229 C 28.751,98.334 26.418,96.056 25.78,94.795 l -1.548,0.061 c -1.86,-2.295 -2.851,-3.949 -2.779,-5.23 l -0.5,0.891 c -0.567,-0.973 -6.843,-8.607 -3.587,-6.83 -0.605,-0.553 -1.409,-0.9 -2.281,-2.484 l 0.663,-0.758 c -1.567,-2.016 -2.884,-4.6 -2.784,-5.461 0.836,1.129 1.416,1.34 1.99,1.533 -3.957,-9.818 -4.179,-0.541 -7.176,-9.994 L 8.412,66.472 C 7.926,65.74 7.631,64.945 7.24,64.165 l 0.276,-2.75 C 4.667,58.121 6.719,47.409 7.13,41.534 7.415,39.145 9.508,36.602 11.1,32.614 l -0.97,-0.167 c 1.854,-3.234 10.586,-12.988 14.63,-12.486 1.959,-2.461 -0.389,-0.009 -0.772,-0.629 4.303,-4.453 5.656,-3.146 8.56,-3.947 3.132,-1.859 -2.688,0.725 -1.203,-0.709 5.414,-1.383 3.837,-3.144 10.9,-3.846 0.745,0.424 -1.729,0.655 -2.35,1.205 4.511,-2.207 14.275,-1.705 20.617,1.225 7.359,3.439 15.627,13.605 15.953,23.17 l 0.371,0.1 c -0.188,3.802 0.582,8.199 -0.752,12.238 l 0.908,-1.912"
               ns2:knockout="Off"
               style="fill:#a80030" />
            <path
               id="path62"
               d="m 32.372,59.764 -0.252,1.26 c 1.181,1.604 2.118,3.342 3.626,4.596 -1.085,-2.118 -1.891,-2.993 -3.374,-5.856"
               ns2:knockout="Off"
               style="fill:#a80030" />
            <path
               id="path64"
               d="m 35.164,59.654 c -0.625,-0.691 -0.995,-1.523 -1.409,-2.352 0.396,1.457 1.207,2.709 1.962,3.982 l -0.553,-1.63"
               ns2:knockout="Off"
               style="fill:#a80030" />
            <path
               id="path66"
               d="m 84.568,48.916 -0.264,0.662 c -0.484,3.438 -1.529,6.84 -3.131,9.994 1.77,-3.328 2.915,-6.968 3.395,-10.656"
               ns2:knockout="Off"
               style="fill:#a80030" />
            <path
               id="path68"
               d="M 45.527,0.537 C 46.742,0.092 48.514,0.293 49.803,0 48.123,0.141 46.451,0.225 44.8,0.438 l 0.727,0.099"
               ns2:knockout="Off"
               style="fill:#a80030" />
            <path
               id="path70"
               d="m 2.872,23.219 c 0.28,2.592 -1.95,3.598 0.494,1.889 1.31,-2.951 -0.512,-0.815 -0.494,-1.889"
               ns2:knockout="Off"
               style="fill:#a80030" />
            <path
               id="path72"
               d="M 0,35.215 C 0.563,33.487 0.665,32.449 0.88,31.449 -0.676,33.438 0.164,33.862 0,35.215"
               ns2:knockout="Off"
               style="fill:#a80030" />
          </g>
        </g>
      </g>
      <g
         id="text101"
         style="font-style:normal;font-variant:normal;font-weight:normal;font-stretch:normal;font-size:8.46666622px;line-height:125%;font-family:Prociono;-inkscape-font-specification:Prociono;letter-spacing:0px;word-spacing:0px;fill:#000000;fill-opacity:1;stroke:none;stroke-width:0.26458332px;stroke-linecap:butt;stroke-linejoin:miter;stroke-opacity:1"
         aria-label="Debbugs">
        <path
           id="path28"
           style="font-style:normal;font-variant:normal;font-weight:normal;font-stretch:normal;font-size:8.46666622px;font-family:Prociono;-inkscape-font-specification:Prociono;stroke-width:0.26458332px"
           d="m 66.013394,131.06845 c 0.2286,-0.0169 0.728133,-0.0339 1.176866,-0.0339 0.5842,0 1.312334,0.0847 1.769534,0.0847 h 0.1778 c 1.1938,0 2.853266,-0.8636 2.853266,-3.51367 0,-1.97273 -0.8128,-2.83633 -2.650066,-2.83633 h -0.1778 c -0.567267,0 -0.5842,0.0847 -1.972734,0.0847 -0.448733,0 -0.948266,-0.0169 -1.176866,-0.0339 v 0.31327 l 0.118533,0.008 c 0.397933,0.0254 0.575733,0.0593 0.5842,0.3302 0.0508,1.68487 0.05927,4.826 0.05927,4.89374 0,0.32173 -0.338667,0.36406 -0.762,0.38946 z m 1.583266,-1.18533 c 0,-0.44874 0.03387,-3.6068 0.06773,-4.50427 l 0.09313,-0.0931 c 0.1778,-0.0593 0.550333,-0.0931 1.0922,-0.0931 1.566333,0 2.269066,0.8382 2.269066,2.68394 0,0.80433 -0.143933,1.38853 -0.338666,1.73566 -0.338667,0.6096 -0.6096,0.98214 -1.507067,0.98214 -1.3462,0 -1.6764,-0.14394 -1.6764,-0.7112 z" />
        <path
           id="path30"
           style="font-style:normal;font-variant:normal;font-weight:normal;font-stretch:normal;font-size:8.46666622px;font-family:Prociono;-inkscape-font-specification:Prociono;stroke-width:0.26458332px"
           d="m 72.586834,128.98565 c 0,1.00753 0.321734,2.2098 1.744133,2.2098 0.7366,0 1.210734,-0.5588 1.7018,-1.05833 l -0.186266,-0.19474 c -0.414867,0.4064 -0.829734,0.60114 -1.3462,0.60114 -1.0922,0 -1.100667,-0.84667 -1.100667,-1.68487 h 1.735667 c 0.3556,0 0.668866,-0.0339 0.889,-0.16933 -0.0085,-0.5842 0.09313,-2.04894 -1.634067,-2.04894 -0.651933,0 -1.456266,0.6858 -1.617133,1.04987 -0.06773,0.16087 -0.186267,0.69427 -0.186267,1.2954 z m 0.829734,-0.508 c 0,-0.889 0.127,-1.28693 0.939799,-1.28693 0.762,0 0.880534,0.74506 0.880534,1.13453 -0.2032,0.14393 -0.643467,0.1524 -1.337734,0.1524 z" />
        <path
           id="path32"
           style="font-style:normal;font-variant:normal;font-weight:normal;font-stretch:normal;font-size:8.46666622px;font-family:Prociono;-inkscape-font-specification:Prociono;stroke-width:0.26458332px"
           d="m 76.369714,124.52372 0.01693,0.2794 c 0.618066,0 0.550333,0 0.592666,0.762 0.04233,0.762 0.01693,2.29446 0.03387,5.1054 0.237066,0.3302 1.032933,0.52493 1.413933,0.52493 0.296333,0 0.592667,-0.0254 0.821267,-0.127 0.4572,-0.2032 0.931333,-0.72813 0.982133,-0.79587 0.2794,-0.42333 0.364067,-0.95673 0.364067,-1.69333 0,-1.12607 -0.220134,-1.97273 -1.540934,-1.97273 -0.169333,0 -0.389466,0.0508 -1.303866,0.55033 l 0.03387,-2.34527 v -0.36406 c 0,-0.0931 -0.0762,-0.127 -0.143933,-0.127 -0.09313,0 -0.440267,0.127 -1.27,0.2032 z m 1.363133,4.74133 c 0,-0.28787 0,-0.67733 0.0085,-1.18533 v -0.5588 c 0.6096,-0.32174 0.753533,-0.3302 0.9398,-0.3302 0.4572,0 1.159933,0.2286 1.159933,1.45626 0,0.0593 -0.03387,1.03294 -0.143933,1.38854 -0.160867,0.52493 -0.414867,0.57573 -0.804333,0.57573 -0.440267,0 -0.948267,-0.21167 -1.075267,-0.37253 -0.06773,-0.0677 -0.08467,-0.23707 -0.08467,-0.97367 z" />
        <path
           id="path34"
           style="font-style:normal;font-variant:normal;font-weight:normal;font-stretch:normal;font-size:8.46666622px;font-family:Prociono;-inkscape-font-specification:Prociono;stroke-width:0.26458332px"
           d="m 80.900703,124.52372 0.01693,0.2794 c 0.618067,0 0.550334,0 0.592667,0.762 0.04233,0.762 0.01693,2.29446 0.03387,5.1054 0.237066,0.3302 1.032933,0.52493 1.413933,0.52493 0.296333,0 0.592666,-0.0254 0.821266,-0.127 0.4572,-0.2032 0.931334,-0.72813 0.982134,-0.79587 0.2794,-0.42333 0.364066,-0.95673 0.364066,-1.69333 0,-1.12607 -0.220133,-1.97273 -1.540933,-1.97273 -0.169333,0 -0.389467,0.0508 -1.303867,0.55033 l 0.03387,-2.34527 v -0.36406 c 0,-0.0931 -0.0762,-0.127 -0.143933,-0.127 -0.09313,0 -0.440267,0.127 -1.27,0.2032 z m 1.363133,4.74133 c 0,-0.28787 0,-0.67733 0.0085,-1.18533 v -0.5588 c 0.6096,-0.32174 0.753533,-0.3302 0.9398,-0.3302 0.4572,0 1.159933,0.2286 1.159933,1.45626 0,0.0593 -0.03387,1.03294 -0.143933,1.38854 -0.160867,0.52493 -0.414867,0.57573 -0.804334,0.57573 -0.440266,0 -0.948266,-0.21167 -1.075266,-0.37253 -0.06773,-0.0677 -0.08467,-0.23707 -0.08467,-0.97367 z" />
        <path
           id="path36"
           style="font-style:normal;font-variant:normal;font-weight:normal;font-stretch:normal;font-size:8.46666622px;font-family:Prociono;-inkscape-font-specification:Prociono;stroke-width:0.26458332px"
           d="m 85.533293,126.85205 0.01693,0.28787 c 0.508,0.008 0.550333,-0.0254 0.550333,1.2954 v 0.80433 c 0,0.3556 0.04233,0.9144 0.08467,1.04987 0.127,0.49953 0.567266,0.85513 0.9652,0.85513 0.160866,0 0.7874,-0.0847 1.566333,-0.635 0.0508,0.1016 0.169333,0.6096 0.3556,0.6096 0.05927,0 0.651933,-0.19473 0.651933,-0.19473 0.05927,-0.0169 0.0762,-0.0339 0.0762,-0.0677 0,-0.1524 -0.381,-0.49953 -0.381,-0.8636 0,-0.61806 0.06773,-1.40546 0.06773,-3.24273 0,-0.1016 -0.08467,-0.127 -0.1524,-0.127 -0.09313,0 -0.4318,0.11853 -1.27,0.2032 l 0.01693,0.2794 h 0.270933 c 0.270934,0 0.321734,0 0.321734,0.70273 0,0.39794 -0.01693,1.02447 -0.01693,2.0066 0,0.26247 -0.01693,0.3048 -0.347133,0.47414 -0.160867,0.0847 -0.626533,0.18626 -0.8636,0.18626 -0.160867,0 -0.423333,-0.14393 -0.508,-0.38946 -0.06773,-0.18627 -0.08467,-0.4826 -0.08467,-0.8636 0,-0.52494 0.03387,-1.5494 0.03387,-2.47227 0,-0.1016 -0.08467,-0.127 -0.1524,-0.127 -0.09313,0 -0.4572,0.14393 -1.202267,0.2286 z" />
        <path
           id="path38"
           style="font-style:normal;font-variant:normal;font-weight:normal;font-stretch:normal;font-size:8.46666622px;font-family:Prociono;-inkscape-font-specification:Prociono;stroke-width:0.26458332px"
           d="m 90.144582,131.77118 c 0,0.82127 1.083733,1.02447 1.735667,1.02447 1.651,0 2.201333,-0.84667 2.201333,-1.41393 0,-0.44027 -0.372533,-0.80434 -0.6096,-0.89747 -0.169333,-0.0677 -0.728133,-0.0847 -0.770467,-0.0847 h -1.007533 c -0.211667,0 -0.364067,-0.127 -0.364067,-0.28786 0,-0.21167 0.2286,-0.36407 0.694267,-0.4826 0.440267,-0.0931 0.762,-0.21167 1.0668,-0.38947 0.3556,-0.3302 0.491067,-0.635 0.491067,-1.10913 0,-0.26247 -0.0762,-0.72814 -0.169334,-0.8636 h 0.668867 v -0.3556 l -0.0508,-0.0508 c -0.254,0.0593 -0.601133,0.1016 -0.821267,0.11006 -0.372533,-0.31326 -0.728133,-0.33866 -0.9144,-0.33866 -0.889,0 -1.617133,0.7366 -1.727199,0.9652 -0.110067,0.24553 -0.143934,0.56726 -0.143934,0.77893 0,0.0677 0,0.127 0.0085,0.16087 0.1016,0.55033 0.313267,0.77893 0.880533,1.03293 -0.728133,0.22013 -0.753533,0.4826 -0.753533,0.6096 0,0.24553 0.245533,0.39793 0.668866,0.4572 -1.015999,0.4318 -1.083733,0.8636 -1.083733,1.13453 z m 0.728133,-0.24553 c 0,-0.54187 0.575734,-0.7112 1.405467,-0.7112 0.762,0 0.9906,0.31327 0.9906,0.64347 0,0.56726 -0.372533,1.00753 -1.2446,1.00753 -0.508,0 -1.151467,-0.39793 -1.151467,-0.9398 z m 0.3302,-3.2004 c 0,-0.93133 0.245534,-1.17687 0.626534,-1.17687 0.03387,0 0.0762,0 0.118533,0.008 0.643467,0.0762 0.829733,0.24553 0.829733,0.99907 0,0.8128 -0.169333,1.04986 -0.719666,1.04986 -0.575734,0 -0.855134,-0.38946 -0.855134,-0.88053 z" />
        <path
           id="path40"
           style="font-style:normal;font-variant:normal;font-weight:normal;font-stretch:normal;font-size:8.46666622px;font-family:Prociono;-inkscape-font-specification:Prociono;stroke-width:0.26458332px"
           d="m 94.459276,128.03738 c 0,1.51554 2.091266,0.95674 2.091266,1.99814 0,0.39793 -0.296333,0.635 -0.795866,0.635 -0.389467,0 -0.592667,-0.11854 -0.702734,-0.27094 -0.237066,-0.32173 -0.05927,-0.77893 -0.347133,-0.77893 -0.2032,0 -0.2286,0.0762 -0.2286,0.99907 0,0.127 0.0254,0.22013 0.06773,0.28786 0.08467,0.14394 0.389467,0.3048 1.083734,0.3048 0.127,0 0.6096,-0.0677 0.804333,-0.21166 0.270933,-0.21167 0.372533,-0.33867 0.541867,-0.6096 0.110066,-0.18627 0.127,-0.42334 0.127,-0.6604 0,-1.5748 -2.074334,-1.05834 -2.074334,-2.04894 0,-0.1524 0.06773,-0.5588 0.7112,-0.5588 0.254,0 0.508,0.0593 0.635,0.24554 0.110067,0.16086 0.2032,0.52493 0.211667,0.64346 h 0.313267 c 0,-0.49953 0.0254,-0.74506 0.0254,-0.82973 0,-0.3048 -0.160867,-0.36407 -0.287867,-0.41487 -0.220133,-0.0931 -0.465667,-0.14393 -0.651933,-0.14393 -0.694267,0 -0.9652,0.11853 -1.380067,0.7874 -0.110067,0.16933 -0.143933,0.39793 -0.143933,0.62653 z" />
      </g>
      <g
         id="text3723-71"
         style="font-style:normal;font-weight:normal;font-size:10.58333302px;line-height:125%;font-family:sans-serif;text-align:end;letter-spacing:0px;word-spacing:0px;text-anchor:end;fill:#000000;fill-opacity:1;stroke:none;stroke-width:0.26458332px;stroke-linecap:butt;stroke-linejoin:miter;stroke-opacity:1"
         aria-label="ðŸœ
ðŸ›ðŸž">
        <path
           id="path43"
           style="text-align:end;text-anchor:end;stroke-width:0.26458332px"
           d="m 97.013367,105.46749 q 0,0.0568 -0.06718,0.0982 -0.434082,0.0103 -0.950846,0.14987 -0.144694,0.0413 -0.382406,0.25838 -0.237711,0.21704 -0.37207,0.26355 -0.444417,0.031 -1.131714,0.093 -0.37207,0.0517 -0.594279,0.16019 -0.04134,0.0465 -0.139526,0.12403 -0.149862,0.093 -0.346232,0.093 -0.04134,0 -0.124024,-0.0103 -0.07751,-0.0155 -0.118855,-0.0155 -0.108521,0 -0.139527,0.10336 0.129191,0.0258 0.253215,0.0568 0.129191,0.031 0.217041,0.1447 0.01033,0.10335 0.04134,0.14986 0.134359,-0.0879 0.273885,-0.1757 0.124023,-0.0672 0.310059,-0.0672 0.304891,0 0.444417,0.0517 0.06201,0.0207 0.361735,0.26872 0.578776,0.47543 0.578776,0.95602 0,0.16019 -0.144694,0.49092 -0.139526,0.33073 -0.253215,0.43408 -0.134358,0.11886 -0.418579,0.23255 -0.279052,0.11369 -0.454752,0.11369 -0.356568,0 -0.707967,-0.28422 -0.299724,-0.24288 -0.496094,-0.59428 -0.06201,-0.11369 -0.06201,-0.56328 0,-0.12919 0.237712,-0.53226 -0.325562,-0.0568 -0.356568,-0.5116 -0.08268,0.0258 -0.08268,0.30489 0,0.27905 -0.08785,0.42892 -0.05684,0.0517 -0.144694,0.1757 -0.1757,0.42374 -0.1757,1.18339 0,0.33072 -0.05684,0.50126 -0.180867,0.21704 -0.423746,0.52193 -0.124024,0.1912 -0.217041,0.76998 -0.01034,0.13436 -0.02584,0.27388 -0.02584,0.21188 -0.08785,0.21188 -0.05168,0 -0.10852,-0.062 0,-0.55293 0.160197,-1.04386 0.118856,-0.23254 0.310058,-0.71313 0.01034,-0.13436 0.05168,-0.39791 0.02067,-0.0724 0.253214,-0.71314 0.196371,-0.53743 0.196371,-0.65112 0,-0.0413 -0.01033,-0.11369 -0.01034,-0.0775 -0.01034,-0.11885 0,-0.26872 0.180868,-0.40825 v -0.093 q -0.02584,-0.0155 -0.113688,-0.0155 -0.05684,0 -0.07235,0.005 -0.03617,0.0465 -0.372071,0.53743 -0.258382,0.38241 -0.382405,0.46509 -0.03101,0.0207 -0.160197,0.031 -0.196371,0.27905 -0.392741,0.5581 -0.227376,0.30489 -0.490926,0.48576 -0.02067,0.3204 -0.04651,0.64596 -0.03101,0.46508 -0.103353,0.56844 -0.10852,-0.005 -0.10852,-0.20671 0,-0.0413 0.0155,-0.12402 0.02067,-0.0775 0.02067,-0.11886 v -0.93017 q 0,-0.15503 0.45992,-0.54261 0.501262,-0.41857 0.5271,-0.47542 0,0 0,-0.093 0,-0.11368 0.335897,-0.39791 0.222208,-0.18603 0.444417,-0.37207 -0.04134,0 -0.124023,0.0155 -0.08268,0.0103 -0.124024,0.0103 -0.206706,0 -0.558105,-0.34623 -0.346232,-0.3514 -0.552938,-0.3514 0.03101,0 -0.434082,0.0362 l -0.868164,0.0672 q -0.02584,0 -0.08268,-0.0413 -0.05684,-0.0413 -0.08268,-0.0413 -0.06718,0 -0.465088,0.20671 -0.39274,0.20154 -0.485758,0.27388 -0.124023,0.093 -0.19637,0.37207 -0.07235,0.27389 -0.124024,0.29973 -0.129191,-0.0465 -0.129191,-0.0878 0,-0.0258 0.05684,-0.1602 0.06718,-0.15503 0.07235,-0.18087 0.0155,-0.1602 0.05684,-0.48059 0.26355,-0.13436 0.81132,-0.3514 0.118856,-0.005 0.335897,-0.0517 0.04651,-0.0207 0.09302,-0.0878 0.03101,-0.0465 0.129191,-0.0465 0.702799,0 1.235066,0.10335 0.165365,0.031 0.625285,0.29455 0.418579,0.23772 0.573608,0.23772 -0.279052,-0.30489 -0.346232,-0.38241 -0.211873,-0.25321 -0.28422,-0.41858 -0.01033,-0.14986 -0.03617,-0.41341 -0.227377,0.20154 -0.465088,0.20154 -0.08268,0 -0.180868,-0.0568 -0.160197,-0.093 -0.170532,-0.0982 -0.0052,-0.005 -0.124024,-0.0207 -0.05684,-0.005 -0.09302,-0.093 -0.0052,-0.0103 -0.0052,-0.0982 0,-0.11886 -0.253214,-0.47026 l -1.788005,0.894 q -0.04134,-0.0465 -0.139526,-0.10335 -0.05168,-0.34623 -0.232544,-1.49862 -0.04651,-0.24288 -0.108521,-0.72863 l 0.02584,-0.0517 q 0.02067,-0.0103 0.04651,-0.0103 0.04134,0 0.05684,0.0362 0,0.005 0.118855,0.67179 l 0.248047,1.41077 0.03101,0.0362 1.674316,-0.86816 q -0.01033,-0.13953 -0.06718,-0.40825 -0.01033,-0.0258 -0.149862,-0.16019 v -0.1292 q 0.206706,0.0775 0.186036,0.0775 0.03617,0 0.149861,-0.10852 0.118856,-0.11369 0.118856,-0.14986 0,-0.0517 -0.07752,-0.12403 v -0.0723 h 0.134359 q 0.04134,0.0568 0.155029,0.14986 0.139527,0.0155 0.413412,0.0672 l 0.868164,-1.67432 -2.185913,-0.43925 q 0.06718,-0.0724 0.118856,-0.0724 0.02584,0 0.707967,0.10336 l 1.46761,0.22221 q 0.08268,0.0723 0.108521,0.14986 l -0.873332,1.77767 q 0.377238,0.25321 0.506429,0.25321 0.04651,0 0.06201,0.005 0.103353,0.0362 0.103353,0.1757 0,0.0362 0.07751,0.14986 0.08268,0.11369 0.08268,0.26872 0,0.2067 -0.201538,0.43408 0.144694,-0.0103 0.413411,0.0413 0.294556,0.13436 0.769979,0.64596 l 0.01034,-0.0258 q 0,-0.15503 -0.248047,-0.59428 -0.258382,-0.46509 -0.28422,-0.65629 -0.08268,-0.57361 -0.08268,-1.14205 0,-0.10852 0.05684,-0.15503 0.06201,-0.0465 0.07751,-0.0982 0,0 0,-0.16537 0,-0.0568 0.387574,-0.96118 0.07235,-0.0517 0.237711,-0.062 0.222209,-0.005 0.26355,-0.0155 0.04134,-0.0103 0.139526,-0.0672 0.07235,-0.0465 0.1757,-0.0465 0.05684,0 0.108521,0.11368 l -0.08268,0.0775 q -0.28422,0.062 -0.315226,0.0724 -0.155029,0.0517 -0.273885,0.17053 -0.04651,0.0465 -0.26355,0.47025 -0.211873,0.41858 -0.211873,0.46509 0,0.0258 0.03617,0.0827 0.04134,0.0517 0.04134,0.0775 l -0.09819,1.33325 q 0,0.19637 0.346232,0.55811 0.346233,0.36173 0.346233,0.49609 0,0.0517 -0.0155,0.14986 -0.01034,0.0982 -0.01034,0.1447 0.299724,-0.38241 0.330729,-0.41342 0.222209,-0.26355 0.377238,-0.3514 0.05684,0 0.160197,-0.0155 0.0155,-0.005 0.449585,-0.50643 0.413412,-0.48059 0.568441,-0.48059 h 0.945679 q 0.03617,0 0.103353,-0.0207 0.07235,-0.0207 0.10852,-0.0207 0.155029,0 0.217041,0.0878 -0.0155,0.0879 -0.165364,0.10335 -0.3514,0.0207 -1.049032,0.0724 -0.124023,0.23254 -0.475423,0.48576 -0.284221,0.19637 -0.568441,0.39791 0,0 0,0.0672 0,0.13436 -0.403076,0.3979 -0.108521,0.0724 -0.651123,0.45993 0.02584,0.0568 0.02067,0.16019 l 0.0155,0.0103 q 0.04134,0 0.227377,-0.0879 0.186035,-0.0878 0.320394,-0.0878 0.03101,0 0.08785,0.0103 0.06201,0.005 0.09302,0.005 0.06718,0 0.645955,-0.20154 0.645956,-0.21704 0.738973,-0.24288 0.129191,-0.005 0.377238,-0.0517 0.222209,-0.10336 0.676962,-0.28939 0.48059,-0.16537 1.100708,-0.16537 0.04134,0.0672 0.04134,0.0775 z" />
        <path
           id="path45"
           style="text-align:end;text-anchor:end;stroke-width:0.26458332px"
           d="m 86.48171,118.01574 q -0.02067,0.0258 -0.07752,0.0258 0.01034,0 -0.37207,-0.12919 -0.444417,-0.14986 -0.997355,-0.14986 -0.10852,0 -0.191203,0.0517 0.465088,0.45992 0.470256,0.47025 0.242879,0.27389 0.341064,0.56844 0.06718,0.19638 0.06718,0.3204 0,0.23254 -0.170533,0.40824 -0.06201,-0.0827 -0.08268,-0.22221 -0.0155,-0.12402 -0.03101,-0.24288 -0.08785,-0.40824 -0.578776,-0.82165 -0.485758,-0.41341 -0.89917,-0.41341 -0.04134,0 -0.07751,0.0155 0.03101,0.0879 0.124023,0.1912 0.299723,0.3359 0.604614,0.89401 0.3514,0.64078 0.3514,0.99218 0,0.0775 -0.08268,0.20671 h -0.07235 q -0.03101,-0.11369 -0.09302,-0.34623 -0.09819,-0.35657 -0.630452,-1.12655 -0.578776,-0.84233 -0.842326,-0.84233 -0.118856,0 -0.118856,0.0775 0,-0.005 0.07235,0.20671 0.09302,0.27388 0.661458,1.29707 0.170533,0.29456 0.335897,0.58911 0.222209,0.39791 0.253215,0.59945 l -0.04651,0.0465 q -0.149862,-0.0155 -0.909505,-1.10071 -0.630453,-0.9095 -0.8785,-1.33842 -0.30489,0.23771 -0.30489,0.40825 0,0.18603 0.521931,0.85783 0.341065,0.43924 0.687297,0.87849 0.258382,0.38241 0.346232,0.66663 l -0.02584,0.0879 -1.720825,-1.757 q -0.191203,0.16537 -0.191203,0.64079 0,0.0724 0.857829,0.76481 0.862996,0.69246 0.862996,0.8785 v 0.0879 q 0,0.0207 -0.05168,0.0258 -0.07751,0 -0.186036,-0.0879 -0.06718,-0.062 -0.19637,-0.18604 -0.248047,-0.22737 -0.645955,-0.48576 -0.490926,-0.31522 -0.7028,-0.32039 -0.08268,0.38757 -0.08268,0.65112 0,0.0413 0.02067,0.0724 0.07751,0.11369 0.346232,0.33073 0.253214,0.21187 0.39274,0.28422 0.3514,0.18604 0.800985,0.26355 v 0.0724 q -0.08785,0.10852 -0.248047,0.10852 -0.294555,0 -0.878499,-0.3204 -0.578776,-0.32039 -0.661458,-0.32039 -0.07235,0 -0.180868,0.13953 -0.10852,0.13952 -0.10852,0.21704 0,0.13436 0.496093,0.52193 0.0052,0.005 0.418579,0.27388 0.346233,0.22738 0.346233,0.25839 0,0.10852 -0.258383,0.10852 -0.661458,0 -1.410766,-0.75965 -0.268718,0.19121 -0.268718,0.23772 0,0.005 0.07235,0.2067 0.108521,0.31006 0.356568,0.61495 0.237711,0.26355 0.470255,0.53227 -0.08268,0.0672 -0.191203,0.0672 -0.377237,0 -0.775146,-0.57361 -0.397908,-0.56844 -0.485758,-0.56844 -0.227377,0 -0.227377,0.58394 0,0.23771 0.15503,0.56844 0.134358,0.26872 0.263549,0.53744 v 0.0723 h -0.129191 q -0.10852,0 -0.28422,-0.2222 -0.356567,-0.45476 -0.465088,-1.26091 -0.06718,-0.0155 -0.04134,-0.0155 0.02067,0 -0.165365,0.0517 -0.04651,0.0155 -0.439249,0.031 -0.237712,0.28939 -0.237712,0.73381 0,0.24804 0.04651,0.38757 0.03617,0.10852 0.03617,0.10335 v 0.18604 q -0.0155,0.0258 -0.06201,0.0258 -0.118856,0 -0.227377,-0.31522 -0.09302,-0.26872 -0.09302,-0.42375 0,-0.18087 0.04651,-0.39274 0.01033,-0.0362 0.07751,-0.25321 0.05684,-0.18604 0.05684,-0.22738 0,-0.0672 -0.05168,-0.10335 -0.0052,-0.005 -0.387573,-0.1602 -0.589112,-0.24288 -0.894003,-0.60978 -0.242879,-0.29456 -0.263549,-0.44959 0.0155,-0.0258 0.05684,-0.0258 0.02067,0 0.54777,0.42374 0.532267,0.41858 0.83199,0.41858 0.07752,0 0.129191,-0.0724 0.05168,-0.0723 0.09819,-0.13952 0.03617,-0.0413 0.19637,-0.13953 -0.217041,-0.15503 -0.640788,-0.47542 -0.10852,-0.0879 -0.294555,-0.32556 -0.206706,-0.26872 -0.206706,-0.36174 v -0.0827 q 0.0155,-0.0258 0.06201,-0.0258 0.08785,0 0.325561,0.21704 0.155029,0.14986 0.310059,0.29973 0.382405,0.32556 0.956014,0.60461 l 0.02584,-0.0103 q -0.397909,-0.42374 -0.795817,-0.84232 -0.563273,-0.64596 -0.563273,-0.90951 0,0.0724 0.02067,-0.13436 0.06718,-0.0258 0.07751,-0.0258 0.05168,0 0.09302,0.0672 0.356567,0.56327 1.049031,1.21439 0.149862,0.1447 0.294556,0.28422 0.191203,0.15503 0.366902,0.15503 0.149862,0 0.258383,-0.0878 -0.992188,-0.72347 -1.436605,-1.85518 l 0.03101,-0.0103 q 0.124023,0.005 0.800984,0.76998 0.676962,0.76481 0.925009,0.76481 0.08785,0 0.180867,-0.11369 0.09302,-0.11368 0.09819,-0.2067 -0.397908,-0.31523 -1.131714,-1.02319 -0.160197,-0.18604 -0.341064,-0.53227 -0.206706,-0.39274 -0.206706,-0.58395 0,-0.0723 0.02584,-0.11885 0.05168,0.005 0.08268,0.0413 0.07235,0.16536 0.253214,0.48059 0.07235,0.0775 0.206706,0.24288 0.563273,0.8785 1.255737,1.0542 0.237712,-0.36174 0.237712,-0.7183 v -0.031 q -0.454753,-0.27388 -1.049032,-0.84749 -0.713134,-0.69763 -0.713134,-1.04387 0,-0.0672 0.04651,-0.15503 h 0.04134 q 0.630453,0.63046 0.852662,0.82166 0.614949,0.5426 0.945678,0.61495 0.04651,-0.0879 0.139527,-0.48059 0.09302,-0.39274 0.09302,-0.49093 0,-0.24805 -0.909505,-0.8785 -0.909505,-0.63045 -0.909505,-0.7028 0,-0.10852 0.129191,-0.10852 0.242879,0 0.956014,0.50126 0.718302,0.4961 0.852661,0.4961 0.217041,0 0.521932,-0.54777 -0.583944,-0.6718 -0.925008,-1.03353 -0.08785,-0.093 -0.532267,-0.48059 0.01034,-0.11369 0.165364,-0.11369 0.325562,0 0.971517,0.64079 0.645955,0.63562 0.780314,0.63562 0.361735,0 0.361735,-0.3359 0,-0.41858 -0.320394,-0.81132 -0.289388,-0.35657 -0.702799,-0.53743 0.09819,-0.0724 0.191203,-0.0724 0.356567,0 0.72347,0.42891 0.294555,0.3359 0.465088,0.74931 0.05168,0.12919 0.103352,0.34623 0.05684,0.21188 0.356568,0.21188 0.361735,0 0.361735,-0.34623 0,-0.51677 -0.7028,-1.10588 -0.134358,-0.0827 -0.335896,-0.29972 l 0.08785,-0.0258 q 0.465088,0.20154 0.909506,0.72864 0.48059,0.56844 0.48059,1.02836 0,0.0723 -0.02067,0.14986 0.08268,0.0724 0.341064,0.0724 0.06201,0 0.191203,-0.22221 0.118856,-0.20154 0.139526,-0.28939 0.03101,-0.12919 0.03101,-0.21704 0,-0.22738 -0.118855,-0.41858 l 0.02067,-0.17053 q 0.139526,0.0362 0.253215,0.32556 0.103353,0.24804 0.103353,0.42374 0,0.10853 -0.05684,0.26872 -0.07235,0.19637 -0.08268,0.26872 0.103353,0.0465 0.310059,0.15503 0.0052,0.0207 0.0052,0.062 0,0.0879 -0.03617,0.1602 0.09819,0.0465 0.542602,0.12919 0.304891,0.0568 0.496094,0.29455 z" />
        <path
           id="path47"
           style="text-align:end;text-anchor:end;stroke-width:0.26458332px"
           d="m 97.02887,119.24564 q 0,0.0775 -0.108521,0.21187 -0.02067,0.0258 -0.387573,0.2067 -0.108521,0.0879 -0.356567,0.20671 -0.103353,0.0258 -0.341065,0.0258 -0.299723,0 -0.578776,-0.1602 0,0.49093 -0.06201,0.83716 -0.05684,0.18603 -0.165364,0.55294 -0.07752,0.29972 -0.149862,0.60461 -0.103353,0.38241 -0.237711,0.55811 -0.180868,0.24288 -1.751831,0.60978 -0.26355,0.062 -0.651123,0.062 -0.06201,0 -0.186036,-0.0207 0.04651,0.093 0.113689,0.28422 0.0155,0.062 0.0155,0.5271 0,0.12402 -0.165364,0.44959 -0.160197,0.32556 -0.26355,0.42891 -0.103353,0.10335 -0.232544,0.10335 -0.268717,0 -0.382405,-0.18087 -0.124024,-0.20153 -0.124024,-0.37207 0,-0.13952 0.180868,-0.22737 0.05168,-0.0258 0.232544,-0.031 0.134358,-0.16536 0.134358,-0.22221 0,-0.093 -0.129191,-0.42891 -0.129191,-0.33073 -0.191203,-0.40824 -0.02584,-0.031 -0.475423,-0.24288 -0.449585,-0.21704 -0.733805,-0.42892 -0.01033,-0.0103 -0.310059,-0.31006 l -0.02584,0.0362 q -0.06718,0.36173 -0.542602,0.5426 -0.134359,0.0517 -0.139527,0.0517 -0.124023,0 -0.258382,-0.20154 -0.08268,-0.12403 -0.08268,-0.27905 0,-0.11886 0.139526,-0.20154 0.07235,-0.0155 0.217041,-0.0672 0.139527,-0.0775 0.232544,-0.40308 -0.170532,-0.11885 -0.268717,-0.28939 -0.1757,-0.29455 -0.196371,-0.32039 -0.04134,0.005 -0.113688,0.005 -0.315226,0 -0.790649,-0.23771 -0.108521,-0.0568 -0.325562,-0.26355 -0.237711,-0.22221 -0.237711,-0.31006 0,-0.19637 0.113688,-0.3359 0.113688,-0.14469 0.304891,-0.14469 0.05684,0 0.242879,0.10335 0.07752,0.29455 0.170532,0.3669 0.01034,0.0103 0.356567,0.18087 0.0052,-0.0827 0.02067,-0.24805 0.08268,-0.16019 0.170532,-0.49092 -0.330729,-0.34624 -0.330729,-0.89401 0,-0.3979 0.253215,-0.72347 0,-0.0362 -0.03101,-0.0672 -0.160197,0.031 -0.372071,0.25839 -0.07235,-0.0465 -0.382405,-0.29973 v -0.26871 q 0.294556,-0.23772 0.273885,-0.23772 0.05168,0 0.149862,0.0414 0.103352,0.0362 0.155029,0.0362 0.07235,0 0.139526,-0.093 0.320394,-0.45475 0.583944,-0.66146 0.139526,-0.0672 0.341064,-0.26355 0.02067,-0.0465 0.02067,-0.093 0,-0.062 -0.03101,-0.16537 -0.03101,-0.10852 -0.03617,-0.14986 0.206705,-0.24805 0.273885,-0.24805 0.206705,0 0.315226,0.11886 0.103353,0.13436 0.211873,0.26872 -0.09819,0.0879 -0.253214,0.33073 l 0.0052,0.0103 q 0.124024,-0.0103 0.382406,-0.10335 0.237712,-0.093 0.387573,-0.093 0.377238,0 0.594279,0.10852 0.02584,0.0155 0.170532,0.12402 0.129191,0.10336 0.149862,0.10336 0.03617,0 0.232544,-0.0775 0.217041,-0.0827 0.268717,-0.093 0.07752,-0.005 0.227377,-0.0207 -0.05684,-0.16536 -0.273885,-0.43408 -0.03101,-0.0207 -0.294556,-0.0672 -0.08268,-0.29455 -0.08268,-0.26355 0,-0.42374 0.454752,-0.42374 0.113688,0 0.3514,0.24288 0.217041,0.22737 0.268717,0.35656 0.201539,0.5116 0.206706,0.863 0.165365,0.10335 0.330729,0.20671 0.165365,0.0982 0.289388,0.28422 0.335897,-0.093 0.392741,-0.25322 0.0052,-0.0517 0.03101,-0.15503 0.02067,-0.0465 0.113688,-0.11369 0.09302,-0.0723 0.139527,-0.0723 0.134358,0 0.248046,0.0672 0.222209,0.12919 0.222209,0.24804 0,0.1447 -0.160197,0.36174 -0.155029,0.21187 -0.294555,0.28422 -0.06201,0.0207 -0.1757,0.0724 0.330729,0.29455 0.702799,0.96118 0.08268,0.22737 0.26355,0.54777 0.118856,0.11369 0.423747,0.17053 0.206705,0.0103 0.625284,0.0413 0.0155,-0.0775 0.05684,-0.22738 0.08785,-0.2067 0.222208,-0.2067 0.155029,0 0.377238,0.12919 0.180868,0.10335 0.180868,0.40308 z m -5.937622,-2.6045 q -0.196371,-0.2067 -0.325562,-0.2067 -0.103353,0 -0.361735,0.12402 -0.279053,0.12919 -0.279053,0.21187 0,0.15503 0.217042,0.15503 0.37207,0 0.625284,-0.14469 0.07752,-0.0465 0.124024,-0.13953 z m -1.35909,0.0465 v -0.093 q -0.04134,-0.062 -0.08785,-0.062 -0.118856,0 -0.428915,0.31523 -0.310058,0.31523 -0.310058,0.43408 0,0.0982 0.09819,0.0982 0.02067,0 0.155029,-0.1602 0.15503,-0.18604 0.160197,-0.1912 0.222209,-0.22221 0.413412,-0.34107 z m 5.033284,3.10059 q 0,-0.47026 -0.08785,-0.85266 -0.08268,-0.38758 -0.516764,-0.98186 -0.413412,-0.55293 -0.775147,-0.82165 -0.449585,-0.33073 -0.883667,-0.5116 -0.160197,-0.0672 -0.263549,-0.0672 -0.237712,0 -0.454753,0.12403 -0.160197,0.093 -0.273885,0.28938 -0.09819,0.1757 -0.191203,0.35657 -0.315226,0.52193 -1.25057,1.34876 -0.206705,0.18086 -0.387573,0.28939 -0.180867,0.10335 -0.361735,0.19637 -0.19637,0.11368 -0.289388,0.28938 -0.124023,0.23772 -0.124023,0.43925 0,0.10336 0.351399,0.73381 0.08785,0.16536 0.289388,0.47025 0.506429,0.62012 1.353923,1.03353 0.113688,0.0724 0.356567,0.18604 0.289388,0.10335 0.873332,0.10335 0.966349,0 1.746663,-0.34623 0.113689,-0.0465 0.320394,-0.1757 0.284221,-0.24288 0.444418,-0.98702 0.124023,-0.57878 0.124023,-1.11621 z m -5.482869,-1.79317 q 0,-0.22221 -0.160197,-0.22221 -0.07752,0 -0.196371,0.24804 -0.118855,0.24805 -0.118855,0.34107 0,0.3514 0.217041,0.3514 0.08785,0 0.180867,-0.31523 0.07752,-0.26872 0.07752,-0.40307 z m 4.718058,0.73897 q 0,0.32556 -0.191203,0.53227 -0.186035,0.2067 -0.506429,0.2067 -0.237712,0 -0.5271,-0.49092 -0.268717,-0.45476 -0.268717,-0.71831 0,-0.11368 0.02584,-0.1757 0.02067,-0.0465 0.1757,-0.1912 0.155029,-0.14986 0.217041,-0.18087 0.06718,-0.031 0.273885,-0.031 0.155029,0 0.26355,0.0362 0.248047,0.0827 0.403076,0.42375 0.134359,0.28939 0.134359,0.58911 z m 0.1757,2.15491 q 0,0.41341 -0.04651,0.49092 -0.165365,0.1757 -0.330729,0.34623 h -0.511597 q -0.02067,0 -0.144694,-0.0723 -0.656291,-0.38758 -0.656291,-1.00253 0,-0.0672 0.08268,-0.22737 0.08785,-0.1602 0.144694,-0.20671 0.191202,-0.16536 0.361735,-0.16536 0.294555,0 0.682129,0.27388 0.418579,0.28939 0.418579,0.56328 z M 91.933574,118.517 q 0,0.24288 -0.387574,0.64595 -0.387573,0.39791 -0.630452,0.39791 -0.217041,0 -0.366903,-0.18603 -0.144694,-0.17054 -0.144694,-0.39274 0,-0.3204 0.320394,-0.63562 0.320394,-0.3204 0.640788,-0.3204 0.217041,0 0.392741,0.13953 0.1757,0.13952 0.1757,0.3514 z m -0.134359,2.39262 q 0,0.23254 -0.165365,0.43925 -0.144694,0.18086 -0.552938,0.18086 -0.387573,0 -0.682128,-0.15503 -0.372071,-0.18603 -0.372071,-0.53743 0,-0.34106 0.08268,-0.44442 0.149861,-0.16019 0.294555,-0.32039 0.07235,-0.0103 0.118856,-0.0103 0.341064,0 0.785482,0.25839 0.490926,0.28422 0.490926,0.58911 z" />
      </g>
    </g>
  </g>
</svg>
